<?xml version="1.0" encoding="utf-8"?>
<!-- Generator: Adobe Illustrator 23.0.3, SVG Export Plug-In . SVG Version: 6.00 Build 0)  -->
<svg version="1.1" id="Слой_1" xmlns="http://www.w3.org/2000/svg" xmlns:xlink="http://www.w3.org/1999/xlink" x="0px" y="0px"
	 viewBox="0 0 134 220" style="enable-background:new 0 0 134 220;" xml:space="preserve">
<g>
	<path d="M24.9,219.4c-6.5,0-12.7-2.5-17.3-7.2c-4.6-4.6-7.2-10.8-7.2-17.3c0-6.5,2.5-12.7,7.2-17.3L75.1,110L7.5,42.5
		c-4.6-4.6-7.2-10.8-7.2-17.3c0-6.5,2.5-12.7,7.2-17.3s10.8-7.2,17.3-7.2s12.7,2.5,17.3,7.2L126.3,92c4.8,4.8,7.4,11.2,7.2,18
		c0.2,6.8-2.4,13.2-7.2,18l-84.1,84.1C37.6,216.8,31.4,219.4,24.9,219.4z"/>
	<path d="M24.9,1.1c6.4,0,12.4,2.5,17,7L126,92.3c4.7,4.7,7.2,11,7,17.6l0,0l0,0c0.2,6.7-2.3,12.9-7,17.6l-84.1,84.1
		c-4.5,4.5-10.6,7-17,7c-6.4,0-12.4-2.5-17-7c-4.5-4.5-7-10.6-7-17s2.5-12.4,7-17l67.2-67.2l0.7-0.7l-0.7-0.7L7.9,42.1
		c-9.4-9.4-9.4-24.6,0-33.9C12.4,3.6,18.5,1.1,24.9,1.1 M24.9,0.1c-6.4,0-12.8,2.4-17.7,7.3v0c-9.8,9.8-9.8,25.6,0,35.4L74.4,110
		L7.2,177.2c-9.8,9.8-9.8,25.6,0,35.4c4.9,4.9,11.3,7.3,17.7,7.3c6.4,0,12.8-2.4,17.7-7.3l84.1-84.1c5.1-5.1,7.5-11.8,7.3-18.4
		c0.2-6.6-2.2-13.3-7.3-18.4L42.5,7.5C37.7,2.6,31.3,0.1,24.9,0.1L24.9,0.1z"/>
</g>
</svg>
